<mxfile host="app.diagrams.net" agent="Mozilla/5.0 (X11; Linux x86_64) AppleWebKit/537.36 (KHTML, like Gecko) Chrome/128.0.0.0 Safari/537.36" version="24.7.8">
  <diagram name="Page-1" id="-H_mtQnk-PTXWXPvYvuk">
    <mxGraphModel dx="3847" dy="1712" grid="1" gridSize="10" guides="1" tooltips="1" connect="1" arrows="1" fold="1" page="1" pageScale="1" pageWidth="1169" pageHeight="827" math="0" shadow="0">
      <root>
        <mxCell id="0" />
        <mxCell id="1" parent="0" />
        <mxCell id="pAIm2UAdyZDwiKJdqrEo-19" style="rounded=0;orthogonalLoop=1;jettySize=auto;html=1;entryX=1;entryY=0.25;entryDx=0;entryDy=0;exitX=0.006;exitY=0.127;exitDx=0;exitDy=0;exitPerimeter=0;edgeStyle=orthogonalEdgeStyle;curved=1;" parent="1" source="pAIm2UAdyZDwiKJdqrEo-18" target="pAIm2UAdyZDwiKJdqrEo-5" edge="1">
          <mxGeometry relative="1" as="geometry" />
        </mxCell>
        <mxCell id="pAIm2UAdyZDwiKJdqrEo-18" value="&lt;h3 style=&quot;&quot;&gt;MongoDB Data&lt;br&gt;&lt;/h3&gt;" style="rounded=1;whiteSpace=wrap;html=1;arcSize=3;movable=1;resizable=1;rotatable=1;deletable=1;editable=1;locked=0;connectable=1;fillColor=#d5e8d4;strokeColor=#82b366;strokeWidth=2;align=center;verticalAlign=top;" parent="1" vertex="1">
          <mxGeometry x="650" y="110" width="360" height="380" as="geometry" />
        </mxCell>
        <mxCell id="bnL0NJ5Pinz14JeK7tJt-10" style="rounded=0;orthogonalLoop=1;jettySize=auto;html=1;entryX=0.75;entryY=1;entryDx=0;entryDy=0;" edge="1" parent="1" source="zA23MoTUsTF4_91t8viU-3" target="bnL0NJ5Pinz14JeK7tJt-9">
          <mxGeometry relative="1" as="geometry" />
        </mxCell>
        <mxCell id="zA23MoTUsTF4_91t8viU-3" value="&lt;h2&gt;pymongo-api&lt;/h2&gt;" style="rounded=1;whiteSpace=wrap;html=1;" parent="1" vertex="1">
          <mxGeometry x="210" y="360" width="150" height="60" as="geometry" />
        </mxCell>
        <mxCell id="re8kxflIUein4YeisGZ5-2" value="&lt;h2&gt;Mongos&lt;br&gt;Router&lt;/h2&gt;" style="shape=or;whiteSpace=wrap;html=1;align=left;spacingLeft=8;" parent="1" vertex="1">
          <mxGeometry x="430" y="280" width="90" height="80" as="geometry" />
        </mxCell>
        <mxCell id="re8kxflIUein4YeisGZ5-4" style="edgeStyle=orthogonalEdgeStyle;rounded=0;orthogonalLoop=1;jettySize=auto;html=1;curved=1;entryX=-0.003;entryY=0.681;entryDx=0;entryDy=0;entryPerimeter=0;" parent="1" source="re8kxflIUein4YeisGZ5-2" target="pAIm2UAdyZDwiKJdqrEo-6" edge="1">
          <mxGeometry relative="1" as="geometry">
            <mxPoint x="640" y="240" as="targetPoint" />
          </mxGeometry>
        </mxCell>
        <mxCell id="re8kxflIUein4YeisGZ5-5" style="edgeStyle=orthogonalEdgeStyle;rounded=0;orthogonalLoop=1;jettySize=auto;html=1;entryX=0;entryY=0.662;entryDx=0;entryDy=0;entryPerimeter=0;curved=1;" parent="1" source="re8kxflIUein4YeisGZ5-2" target="pAIm2UAdyZDwiKJdqrEo-14" edge="1">
          <mxGeometry relative="1" as="geometry">
            <mxPoint x="698.0200000000002" y="385.0400000000001" as="targetPoint" />
          </mxGeometry>
        </mxCell>
        <mxCell id="pAIm2UAdyZDwiKJdqrEo-2" style="edgeStyle=orthogonalEdgeStyle;rounded=0;orthogonalLoop=1;jettySize=auto;html=1;entryX=0.362;entryY=0.993;entryDx=0;entryDy=0;entryPerimeter=0;curved=1;exitX=0.438;exitY=0.036;exitDx=0;exitDy=0;exitPerimeter=0;" parent="1" source="re8kxflIUein4YeisGZ5-2" target="pAIm2UAdyZDwiKJdqrEo-5" edge="1">
          <mxGeometry relative="1" as="geometry">
            <mxPoint x="543.4000000000001" y="218.38" as="targetPoint" />
          </mxGeometry>
        </mxCell>
        <mxCell id="pAIm2UAdyZDwiKJdqrEo-5" value="&lt;h2&gt;configSrv&lt;/h2&gt;" style="rounded=1;whiteSpace=wrap;html=1;" parent="1" vertex="1">
          <mxGeometry x="440" y="120" width="120" height="60" as="geometry" />
        </mxCell>
        <mxCell id="pAIm2UAdyZDwiKJdqrEo-12" value="" style="group" parent="1" vertex="1" connectable="0">
          <mxGeometry x="690" y="170" width="280" height="130" as="geometry" />
        </mxCell>
        <mxCell id="pAIm2UAdyZDwiKJdqrEo-6" value="&lt;h4&gt;&lt;span style=&quot;color: rgb(0, 0, 0);&quot;&gt;shard1&lt;/span&gt;&lt;/h4&gt;" style="rounded=1;whiteSpace=wrap;html=1;arcSize=3;movable=1;resizable=1;rotatable=1;deletable=1;editable=1;locked=0;connectable=1;fillColor=#f5f5f5;strokeColor=#1C57CD;strokeWidth=1;fontColor=#333333;align=center;verticalAlign=top;spacingLeft=0;spacingTop=0;spacing=0;" parent="pAIm2UAdyZDwiKJdqrEo-12" vertex="1">
          <mxGeometry width="280" height="130" as="geometry" />
        </mxCell>
        <mxCell id="zA23MoTUsTF4_91t8viU-2" value="&lt;div&gt;primary&lt;br&gt;&lt;/div&gt;" style="shape=cylinder3;whiteSpace=wrap;html=1;boundedLbl=1;backgroundOutline=1;size=8.273509490184267;" parent="pAIm2UAdyZDwiKJdqrEo-12" vertex="1">
          <mxGeometry x="20" y="60" width="70" height="50" as="geometry" />
        </mxCell>
        <mxCell id="pAIm2UAdyZDwiKJdqrEo-9" value="&lt;div&gt;secondary&lt;br&gt;&lt;/div&gt;" style="shape=cylinder3;whiteSpace=wrap;html=1;boundedLbl=1;backgroundOutline=1;size=8.273509490184267;" parent="pAIm2UAdyZDwiKJdqrEo-12" vertex="1">
          <mxGeometry x="110" y="60" width="70" height="50" as="geometry" />
        </mxCell>
        <mxCell id="pAIm2UAdyZDwiKJdqrEo-11" value="&lt;div&gt;secondary&lt;br&gt;&lt;/div&gt;" style="shape=cylinder3;whiteSpace=wrap;html=1;boundedLbl=1;backgroundOutline=1;size=8.273509490184267;" parent="pAIm2UAdyZDwiKJdqrEo-12" vertex="1">
          <mxGeometry x="200" y="60" width="70" height="50" as="geometry" />
        </mxCell>
        <mxCell id="pAIm2UAdyZDwiKJdqrEo-13" value="" style="group" parent="1" vertex="1" connectable="0">
          <mxGeometry x="690" y="330" width="280" height="130" as="geometry" />
        </mxCell>
        <mxCell id="pAIm2UAdyZDwiKJdqrEo-14" value="&lt;h3&gt;&lt;span style=&quot;color: rgb(0, 0, 0);&quot;&gt;shard2&lt;/span&gt;&lt;/h3&gt;" style="rounded=1;whiteSpace=wrap;html=1;arcSize=3;movable=1;resizable=1;rotatable=1;deletable=1;editable=1;locked=0;connectable=1;fillColor=#f5f5f5;strokeColor=#1C57CD;strokeWidth=1;fontColor=#333333;align=center;verticalAlign=top;spacingLeft=0;spacingTop=0;spacing=0;" parent="pAIm2UAdyZDwiKJdqrEo-13" vertex="1">
          <mxGeometry width="280" height="130" as="geometry" />
        </mxCell>
        <mxCell id="pAIm2UAdyZDwiKJdqrEo-15" value="&lt;div&gt;primary&lt;br&gt;&lt;/div&gt;" style="shape=cylinder3;whiteSpace=wrap;html=1;boundedLbl=1;backgroundOutline=1;size=8.273509490184267;" parent="pAIm2UAdyZDwiKJdqrEo-13" vertex="1">
          <mxGeometry x="20" y="60" width="70" height="50" as="geometry" />
        </mxCell>
        <mxCell id="pAIm2UAdyZDwiKJdqrEo-16" value="&lt;div&gt;secondary&lt;br&gt;&lt;/div&gt;" style="shape=cylinder3;whiteSpace=wrap;html=1;boundedLbl=1;backgroundOutline=1;size=8.273509490184267;" parent="pAIm2UAdyZDwiKJdqrEo-13" vertex="1">
          <mxGeometry x="110" y="60" width="70" height="50" as="geometry" />
        </mxCell>
        <mxCell id="pAIm2UAdyZDwiKJdqrEo-17" value="&lt;div&gt;secondary&lt;br&gt;&lt;/div&gt;" style="shape=cylinder3;whiteSpace=wrap;html=1;boundedLbl=1;backgroundOutline=1;size=8.273509490184267;" parent="pAIm2UAdyZDwiKJdqrEo-13" vertex="1">
          <mxGeometry x="200" y="60" width="70" height="50" as="geometry" />
        </mxCell>
        <mxCell id="pAIm2UAdyZDwiKJdqrEo-25" value="" style="ellipse;whiteSpace=wrap;html=1;" parent="1" vertex="1" visible="0">
          <mxGeometry x="660" y="530" width="80" height="80" as="geometry" />
        </mxCell>
        <mxCell id="pAIm2UAdyZDwiKJdqrEo-28" value="" style="group" parent="1" vertex="1" connectable="0">
          <mxGeometry y="440" width="120" height="110" as="geometry" />
        </mxCell>
        <mxCell id="pAIm2UAdyZDwiKJdqrEo-20" value="&lt;h2&gt;Cache&lt;/h2&gt;" style="shape=cylinder3;whiteSpace=wrap;html=1;boundedLbl=1;backgroundOutline=1;size=15;" parent="pAIm2UAdyZDwiKJdqrEo-28" vertex="1">
          <mxGeometry width="120" height="110" as="geometry" />
        </mxCell>
        <mxCell id="pAIm2UAdyZDwiKJdqrEo-27" value="Redis" style="ellipse;whiteSpace=wrap;html=1;align=center;fillColor=#fad9d5;strokeColor=#ae4132;" parent="pAIm2UAdyZDwiKJdqrEo-28" vertex="1">
          <mxGeometry x="25" width="70" height="20" as="geometry" />
        </mxCell>
        <mxCell id="bnL0NJ5Pinz14JeK7tJt-11" style="rounded=0;orthogonalLoop=1;jettySize=auto;html=1;entryX=1;entryY=0.75;entryDx=0;entryDy=0;" edge="1" parent="1" source="bnL0NJ5Pinz14JeK7tJt-1" target="bnL0NJ5Pinz14JeK7tJt-9">
          <mxGeometry relative="1" as="geometry" />
        </mxCell>
        <mxCell id="bnL0NJ5Pinz14JeK7tJt-1" value="&lt;h2&gt;pymongo-api&lt;/h2&gt;" style="rounded=1;whiteSpace=wrap;html=1;" vertex="1" parent="1">
          <mxGeometry x="210" y="220" width="150" height="60" as="geometry" />
        </mxCell>
        <mxCell id="bnL0NJ5Pinz14JeK7tJt-2" style="edgeStyle=orthogonalEdgeStyle;rounded=0;orthogonalLoop=1;jettySize=auto;html=1;entryX=0;entryY=0.5;entryDx=0;entryDy=0;entryPerimeter=0;curved=1;" edge="1" parent="1" source="zA23MoTUsTF4_91t8viU-3" target="re8kxflIUein4YeisGZ5-2">
          <mxGeometry relative="1" as="geometry" />
        </mxCell>
        <mxCell id="bnL0NJ5Pinz14JeK7tJt-3" style="edgeStyle=orthogonalEdgeStyle;rounded=0;orthogonalLoop=1;jettySize=auto;html=1;entryX=0;entryY=0.5;entryDx=0;entryDy=0;entryPerimeter=0;curved=1;" edge="1" parent="1" source="bnL0NJ5Pinz14JeK7tJt-1" target="re8kxflIUein4YeisGZ5-2">
          <mxGeometry relative="1" as="geometry" />
        </mxCell>
        <mxCell id="bnL0NJ5Pinz14JeK7tJt-5" style="edgeStyle=orthogonalEdgeStyle;rounded=0;orthogonalLoop=1;jettySize=auto;html=1;entryX=0;entryY=0.5;entryDx=0;entryDy=0;curved=1;" edge="1" parent="1" source="bnL0NJ5Pinz14JeK7tJt-4" target="bnL0NJ5Pinz14JeK7tJt-1">
          <mxGeometry relative="1" as="geometry" />
        </mxCell>
        <mxCell id="bnL0NJ5Pinz14JeK7tJt-6" style="edgeStyle=orthogonalEdgeStyle;rounded=0;orthogonalLoop=1;jettySize=auto;html=1;entryX=0;entryY=0.5;entryDx=0;entryDy=0;curved=1;" edge="1" parent="1" source="bnL0NJ5Pinz14JeK7tJt-4" target="zA23MoTUsTF4_91t8viU-3">
          <mxGeometry relative="1" as="geometry" />
        </mxCell>
        <mxCell id="bnL0NJ5Pinz14JeK7tJt-7" style="edgeStyle=orthogonalEdgeStyle;rounded=0;orthogonalLoop=1;jettySize=auto;html=1;entryX=0.5;entryY=0;entryDx=0;entryDy=0;curved=1;" edge="1" parent="1" source="bnL0NJ5Pinz14JeK7tJt-4" target="pAIm2UAdyZDwiKJdqrEo-27">
          <mxGeometry relative="1" as="geometry" />
        </mxCell>
        <mxCell id="bnL0NJ5Pinz14JeK7tJt-12" style="edgeStyle=orthogonalEdgeStyle;rounded=0;orthogonalLoop=1;jettySize=auto;html=1;entryX=0.5;entryY=1;entryDx=0;entryDy=0;curved=1;" edge="1" parent="1" source="bnL0NJ5Pinz14JeK7tJt-4" target="bnL0NJ5Pinz14JeK7tJt-9">
          <mxGeometry relative="1" as="geometry" />
        </mxCell>
        <mxCell id="bnL0NJ5Pinz14JeK7tJt-4" value="&lt;h2&gt;Gateway&lt;/h2&gt;" style="rounded=1;whiteSpace=wrap;html=1;" vertex="1" parent="1">
          <mxGeometry x="-100" y="290" width="150" height="60" as="geometry" />
        </mxCell>
        <mxCell id="bnL0NJ5Pinz14JeK7tJt-9" value="&lt;h2&gt;Consul&lt;/h2&gt;" style="rounded=1;whiteSpace=wrap;html=1;" vertex="1" parent="1">
          <mxGeometry x="-40" y="120" width="150" height="60" as="geometry" />
        </mxCell>
        <mxCell id="bnL0NJ5Pinz14JeK7tJt-13" value="&lt;h1&gt;Region 1&lt;/h1&gt;" style="rounded=1;whiteSpace=wrap;html=1;arcSize=3;movable=1;resizable=1;rotatable=1;deletable=1;editable=1;locked=0;connectable=1;fillColor=#f5f5f5;strokeColor=#1C57CD;strokeWidth=2;fontColor=#333333;align=right;verticalAlign=top;spacingRight=17;" vertex="1" parent="1">
          <mxGeometry x="-620" y="20" width="420" height="260" as="geometry" />
        </mxCell>
        <mxCell id="bnL0NJ5Pinz14JeK7tJt-18" style="edgeStyle=orthogonalEdgeStyle;rounded=0;orthogonalLoop=1;jettySize=auto;html=1;entryX=0.5;entryY=1;entryDx=0;entryDy=0;" edge="1" parent="1" source="bnL0NJ5Pinz14JeK7tJt-14" target="bnL0NJ5Pinz14JeK7tJt-15">
          <mxGeometry relative="1" as="geometry" />
        </mxCell>
        <mxCell id="bnL0NJ5Pinz14JeK7tJt-14" value="&lt;h2&gt;CDN&lt;/h2&gt;" style="rounded=1;whiteSpace=wrap;html=1;" vertex="1" parent="1">
          <mxGeometry x="-400" y="180" width="150" height="60" as="geometry" />
        </mxCell>
        <mxCell id="bnL0NJ5Pinz14JeK7tJt-15" value="&lt;h2&gt;Cache&lt;/h2&gt;" style="rounded=1;whiteSpace=wrap;html=1;" vertex="1" parent="1">
          <mxGeometry x="-400" y="90" width="150" height="60" as="geometry" />
        </mxCell>
        <mxCell id="bnL0NJ5Pinz14JeK7tJt-23" style="rounded=0;orthogonalLoop=1;jettySize=auto;html=1;dashed=1;entryX=0.005;entryY=0.652;entryDx=0;entryDy=0;entryPerimeter=0;" edge="1" parent="1" source="bnL0NJ5Pinz14JeK7tJt-20" target="bnL0NJ5Pinz14JeK7tJt-14">
          <mxGeometry relative="1" as="geometry">
            <mxPoint x="-403" y="210" as="targetPoint" />
          </mxGeometry>
        </mxCell>
        <mxCell id="bnL0NJ5Pinz14JeK7tJt-20" value="User" style="shape=umlActor;verticalLabelPosition=bottom;verticalAlign=top;html=1;outlineConnect=0;" vertex="1" parent="1">
          <mxGeometry x="-584" y="190" width="30" height="60" as="geometry" />
        </mxCell>
        <mxCell id="bnL0NJ5Pinz14JeK7tJt-25" style="rounded=0;orthogonalLoop=1;jettySize=auto;html=1;entryX=-0.007;entryY=0.374;entryDx=0;entryDy=0;dashed=1;entryPerimeter=0;" edge="1" parent="1" source="bnL0NJ5Pinz14JeK7tJt-21" target="bnL0NJ5Pinz14JeK7tJt-14">
          <mxGeometry relative="1" as="geometry" />
        </mxCell>
        <mxCell id="bnL0NJ5Pinz14JeK7tJt-21" value="User" style="shape=umlActor;verticalLabelPosition=bottom;verticalAlign=top;html=1;outlineConnect=0;" vertex="1" parent="1">
          <mxGeometry x="-584" y="50" width="30" height="60" as="geometry" />
        </mxCell>
        <mxCell id="bnL0NJ5Pinz14JeK7tJt-27" value="&lt;h1&gt;Region 2&lt;/h1&gt;" style="rounded=1;whiteSpace=wrap;html=1;arcSize=3;movable=1;resizable=1;rotatable=1;deletable=1;editable=1;locked=0;connectable=1;fillColor=#f5f5f5;strokeColor=#1C57CD;strokeWidth=2;fontColor=#333333;align=right;verticalAlign=top;spacingRight=17;" vertex="1" parent="1">
          <mxGeometry x="-620" y="360" width="420" height="260" as="geometry" />
        </mxCell>
        <mxCell id="bnL0NJ5Pinz14JeK7tJt-28" style="edgeStyle=orthogonalEdgeStyle;rounded=0;orthogonalLoop=1;jettySize=auto;html=1;entryX=0.5;entryY=1;entryDx=0;entryDy=0;" edge="1" parent="1" source="bnL0NJ5Pinz14JeK7tJt-29" target="bnL0NJ5Pinz14JeK7tJt-30">
          <mxGeometry relative="1" as="geometry" />
        </mxCell>
        <mxCell id="bnL0NJ5Pinz14JeK7tJt-29" value="&lt;h2&gt;CDN&lt;/h2&gt;" style="rounded=1;whiteSpace=wrap;html=1;" vertex="1" parent="1">
          <mxGeometry x="-400" y="520" width="150" height="60" as="geometry" />
        </mxCell>
        <mxCell id="bnL0NJ5Pinz14JeK7tJt-30" value="&lt;h2&gt;Cache&lt;/h2&gt;" style="rounded=1;whiteSpace=wrap;html=1;" vertex="1" parent="1">
          <mxGeometry x="-400" y="430" width="150" height="60" as="geometry" />
        </mxCell>
        <mxCell id="bnL0NJ5Pinz14JeK7tJt-33" style="rounded=0;orthogonalLoop=1;jettySize=auto;html=1;dashed=1;entryX=0;entryY=0.75;entryDx=0;entryDy=0;" edge="1" parent="1" source="bnL0NJ5Pinz14JeK7tJt-34" target="bnL0NJ5Pinz14JeK7tJt-29">
          <mxGeometry relative="1" as="geometry">
            <mxPoint x="-403" y="550" as="targetPoint" />
          </mxGeometry>
        </mxCell>
        <mxCell id="bnL0NJ5Pinz14JeK7tJt-34" value="User" style="shape=umlActor;verticalLabelPosition=bottom;verticalAlign=top;html=1;outlineConnect=0;" vertex="1" parent="1">
          <mxGeometry x="-584" y="530" width="30" height="60" as="geometry" />
        </mxCell>
        <mxCell id="bnL0NJ5Pinz14JeK7tJt-35" style="rounded=0;orthogonalLoop=1;jettySize=auto;html=1;entryX=0;entryY=0.5;entryDx=0;entryDy=0;dashed=1;" edge="1" parent="1" source="bnL0NJ5Pinz14JeK7tJt-36" target="bnL0NJ5Pinz14JeK7tJt-29">
          <mxGeometry relative="1" as="geometry" />
        </mxCell>
        <mxCell id="bnL0NJ5Pinz14JeK7tJt-36" value="User" style="shape=umlActor;verticalLabelPosition=bottom;verticalAlign=top;html=1;outlineConnect=0;" vertex="1" parent="1">
          <mxGeometry x="-584" y="400" width="30" height="60" as="geometry" />
        </mxCell>
        <mxCell id="bnL0NJ5Pinz14JeK7tJt-38" style="edgeStyle=orthogonalEdgeStyle;rounded=0;orthogonalLoop=1;jettySize=auto;html=1;entryX=0.141;entryY=1.026;entryDx=0;entryDy=0;entryPerimeter=0;curved=1;" edge="1" parent="1" source="bnL0NJ5Pinz14JeK7tJt-29" target="bnL0NJ5Pinz14JeK7tJt-4">
          <mxGeometry relative="1" as="geometry" />
        </mxCell>
        <mxCell id="bnL0NJ5Pinz14JeK7tJt-39" style="edgeStyle=orthogonalEdgeStyle;rounded=0;orthogonalLoop=1;jettySize=auto;html=1;entryX=0.135;entryY=-0.008;entryDx=0;entryDy=0;entryPerimeter=0;curved=1;" edge="1" parent="1" source="bnL0NJ5Pinz14JeK7tJt-14" target="bnL0NJ5Pinz14JeK7tJt-4">
          <mxGeometry relative="1" as="geometry" />
        </mxCell>
      </root>
    </mxGraphModel>
  </diagram>
</mxfile>
